<svg class="icon w-8 h-8" width="24" height="24" viewBox="0 0 27 27" fill="none" xmlns="http://www.w3.org/2000/svg">
    <rect width="27" height="27"></rect>
    <path d="M13.5 1C11.3713 1 9.36683 1.53211 7.61242 2.47059H19.3876C17.6332 1.53211 15.6287 1 13.5 1Z" fill="white"></path>
    <path d="M21.5549 3.94091H5.44514C4.91345 4.38939 4.4197 4.88142 3.96939 5.4115H23.0306C22.5803 4.88142 22.0865 4.38939 21.5549 3.94091Z" fill="white"></path>
    <path d="M24.1065 6.88233H2.89348C2.59951 7.35249 2.33594 7.8436 2.10551 8.35292H24.8945C24.6641 7.8436 24.4005 7.35249 24.1065 6.88233Z" fill="white"></path>
    <path d="M25.4505 9.82324H1.5495C1.40243 10.3018 1.28332 10.7927 1.19407 11.2938H25.8059C25.7167 10.7927 25.5976 10.3018 25.4505 9.82324Z" fill="white"></path>
    <path d="M25.9787 12.7647H1.02127C1.00716 13.008 1 13.2531 1 13.5C1 13.7468 1.00715 13.992 1.02126 14.2352H25.9787C25.9928 13.992 26 13.7468 26 13.5C26 13.2531 25.9928 13.008 25.9787 12.7647Z" fill="white"></path>
    <path d="M25.8059 15.7061H1.19405C1.28329 16.2072 1.4024 16.6981 1.54947 17.1767H25.4505C25.5976 16.6981 25.7167 16.2072 25.8059 15.7061Z" fill="white"></path>
    <path d="M24.8945 18.647H2.10546C2.33589 19.1563 2.59945 19.6474 2.89341 20.1176H24.1066C24.4005 19.6474 24.6641 19.1563 24.8945 18.647Z" fill="white"></path>
    <path d="M23.0307 21.5884H3.9693C4.41961 22.1185 4.91335 22.6105 5.44502 23.059H21.555C22.0867 22.6105 22.5804 22.1185 23.0307 21.5884Z" fill="white"></path>
    <path d="M19.3878 24.5293H7.61224C9.3527 25.4604 11.3393 25.9915 13.4491 25.9999H13.5509C15.6607 25.9915 17.6473 25.4604 19.3878 24.5293Z" fill="white"></path>
</svg>
